<?xml version="1.0" standalone="no"?>
<!DOCTYPE svg PUBLIC "-//W3C//DTD SVG 20010904//EN"
 "http://www.w3.org/TR/2001/REC-SVG-20010904/DTD/svg10.dtd">
<svg version="1.0" xmlns="http://www.w3.org/2000/svg"
 width="1200.000000pt" height="1200.000000pt" viewBox="0 0 1200.000000 1200.000000"
 preserveAspectRatio="xMidYMid meet">

<g transform="translate(0.000000,1200.000000) scale(0.100000,-0.100000)"
fill="#613DC1" stroke="none">
<path d="M5830 11850 c-8 -5 -25 -10 -38 -10 -12 0 -30 -4 -40 -9 -9 -5 -52
-26 -96 -47 -174 -86 -317 -253 -376 -439 -7 -22 -18 -53 -23 -69 -17 -47 -13
-272 6 -335 26 -83 81 -189 140 -266 53 -70 201 -204 225 -205 6 0 12 -4 12
-9 0 -5 9 -11 20 -14 20 -5 20 -12 18 -924 l-3 -918 -145 -7 c-141 -6 -262
-17 -425 -37 -115 -15 -310 -45 -350 -55 -11 -2 -49 -10 -85 -16 -36 -6 -81
-15 -100 -20 -19 -5 -93 -23 -165 -41 -71 -17 -202 -52 -290 -77 -88 -25 -181
-45 -206 -46 -55 0 -91 20 -242 133 -59 44 -129 95 -155 113 -26 17 -49 35
-52 38 -12 16 -267 181 -390 253 -179 105 -499 267 -627 318 -13 5 -33 13 -45
18 -218 88 -391 131 -527 133 -194 1 -253 -48 -333 -282 -69 -203 -112 -432
-148 -790 -13 -129 -8 -623 8 -755 6 -44 13 -105 17 -135 19 -149 81 -417 130
-559 14 -41 25 -84 25 -97 0 -12 -20 -50 -45 -85 -59 -84 -196 -289 -213 -318
-64 -110 -112 -206 -186 -373 -62 -139 -138 -377 -186 -585 -66 -282 -87 -421
-121 -773 -15 -161 -15 -1021 1 -1168 20 -194 45 -380 61 -452 33 -152 72
-314 90 -370 65 -201 211 -520 290 -632 11 -14 19 -29 19 -34 0 -6 98 -145
140 -198 157 -198 416 -450 585 -571 115 -82 165 -115 196 -133 19 -11 72 -42
119 -69 169 -98 394 -198 595 -265 93 -31 98 -33 230 -68 150 -40 278 -68 510
-111 52 -9 72 -12 400 -61 44 -6 112 -13 150 -14 39 -2 131 -7 205 -13 311
-24 3136 -37 3171 -15 6 3 78 12 162 21 303 29 486 55 740 104 109 21 144 28
187 39 25 6 62 14 83 17 20 3 40 9 43 14 3 5 16 9 29 9 13 0 34 4 47 9 13 5
43 15 68 21 240 67 490 172 710 298 89 51 345 226 370 252 3 3 41 35 85 70 79
64 278 257 346 335 100 116 207 259 288 389 46 73 181 337 181 353 0 5 9 28
20 51 11 22 20 47 20 55 0 7 4 17 8 23 5 5 19 43 31 84 13 41 27 84 31 95 11
28 44 155 55 210 3 17 10 50 15 75 61 289 75 491 75 1070 0 534 -6 645 -54
980 -20 136 -67 364 -99 480 -6 19 -18 62 -27 95 -20 76 -53 175 -65 197 -6
10 -10 25 -10 33 0 8 -4 23 -9 33 -9 18 -18 39 -48 112 -58 146 -206 424 -265
501 -15 20 -28 40 -28 43 0 4 -22 35 -48 69 -27 34 -67 86 -89 116 l-41 54 19
44 c10 25 19 53 19 63 0 10 5 22 10 25 6 3 10 17 10 30 0 13 4 26 9 29 5 3 11
18 14 33 3 16 12 57 21 93 32 125 52 219 65 305 34 226 56 569 47 714 -17 262
-30 391 -55 546 -6 33 -13 76 -16 95 -3 19 -10 51 -15 70 -5 19 -14 58 -20 85
-7 28 -15 61 -20 75 -4 14 -18 59 -31 100 -13 41 -31 90 -41 108 -10 18 -18
39 -18 47 0 8 -4 15 -10 15 -5 0 -10 6 -10 14 0 21 -76 94 -117 112 -63 27
-254 22 -373 -9 -137 -37 -244 -73 -345 -117 -22 -9 -60 -26 -85 -36 -108 -46
-340 -169 -505 -269 -174 -104 -325 -201 -335 -215 -3 -4 -15 -13 -28 -19 -13
-7 -31 -19 -40 -26 -9 -7 -64 -48 -122 -91 -58 -43 -107 -81 -110 -84 -21 -23
-125 -93 -162 -110 -40 -17 -53 -18 -103 -9 -48 9 -157 38 -290 78 -30 9 -42
12 -210 51 -110 26 -154 35 -225 49 -30 6 -68 13 -85 16 -203 41 -551 81 -790
91 -92 4 -153 11 -157 18 -4 6 -7 420 -7 919 -1 897 0 909 19 914 11 3 20 9
20 14 0 5 5 9 11 9 36 0 220 167 275 250 36 53 76 135 100 205 25 69 26 319 2
385 -37 104 -54 139 -101 210 -65 98 -116 151 -202 209 -93 63 -153 90 -253
117 -61 16 -299 19 -322 4z m2389 -6381 c219 -27 371 -53 451 -79 14 -4 45
-13 70 -20 396 -110 739 -355 961 -687 38 -56 69 -104 69 -106 0 -2 18 -37 40
-77 212 -385 298 -978 219 -1505 -41 -272 -132 -521 -268 -730 -14 -22 -30
-48 -36 -56 -84 -135 -240 -309 -390 -435 -139 -117 -424 -285 -625 -367 -25
-10 -54 -22 -65 -27 -11 -5 -38 -14 -60 -21 -22 -7 -44 -17 -49 -21 -6 -4 -20
-8 -32 -8 -13 0 -25 -4 -28 -9 -3 -5 -18 -11 -33 -14 -26 -5 -51 -12 -143 -38
-65 -19 -170 -44 -250 -60 -30 -6 -75 -15 -100 -20 -110 -22 -222 -37 -535
-71 -171 -19 -2631 -19 -2820 0 -305 30 -500 56 -620 82 -22 5 -65 14 -95 20
-79 17 -156 36 -245 61 -50 14 -219 69 -240 79 -11 4 -36 14 -55 21 -115 42
-345 155 -455 225 -342 214 -597 491 -755 819 -68 142 -81 176 -120 315 -26
91 -29 106 -40 180 -6 41 -15 93 -20 115 -5 22 -12 130 -15 240 -9 282 12 531
65 750 5 22 12 54 15 70 4 17 10 39 14 50 5 11 14 38 20 60 60 197 177 414
321 595 249 313 653 545 1080 622 30 5 78 14 105 19 28 5 97 13 154 19 58 6
107 13 110 15 10 11 4315 5 4400 -6z"/>
<path d="M3745 4514 c-226 -49 -405 -195 -535 -437 -58 -107 -89 -197 -127
-367 -21 -97 -24 -424 -5 -520 8 -36 18 -87 24 -115 20 -97 66 -231 109 -317
83 -165 221 -312 349 -371 112 -51 184 -67 305 -67 198 0 336 56 486 198 155
146 268 366 325 632 26 119 26 449 0 565 -24 113 -68 240 -117 338 -169 342
-499 530 -814 461z"/>
<path d="M7976 4515 c-135 -30 -239 -88 -347 -195 -99 -98 -175 -216 -230
-357 -5 -13 -13 -33 -19 -45 -28 -68 -63 -224 -81 -365 -15 -115 -2 -303 30
-438 23 -98 44 -171 52 -180 5 -5 9 -15 9 -22 0 -12 18 -56 53 -133 20 -43 70
-123 114 -181 90 -122 246 -229 386 -264 64 -17 262 -20 299 -6 13 5 48 16 78
25 116 33 273 151 354 266 14 19 29 40 33 45 22 29 95 171 123 240 19 45 48
144 60 200 6 33 16 79 21 102 12 57 11 350 -1 432 -23 143 -57 263 -106 368
-13 30 -24 56 -24 59 0 3 -13 25 -30 49 -16 24 -30 48 -30 54 0 6 -4 11 -8 11
-4 0 -16 15 -27 33 -30 53 -166 181 -230 218 -153 89 -321 118 -479 84z"/>
</g>
</svg>
