<svg width="32" height="32" viewBox="0 0 32 32" fill="none" xmlns="http://www.w3.org/2000/svg">
<path d="M8.60789 0.120483C8.23989 0.248484 7.79989 0.656483 7.59189 1.05648C7.45589 1.32048 7.43989 1.53648 7.43989 2.99248V4.62448L6.58389 5.03248C5.34389 5.63248 4.46389 6.24048 3.55989 7.15248C1.54389 9.17649 0.639893 11.5605 0.639893 14.8245C0.639893 16.9925 0.943893 18.4005 1.75989 20.0405C2.33589 21.2005 2.80789 21.8405 3.75989 22.7445C4.60789 23.5525 5.39989 24.0965 6.57589 24.6645L7.43989 25.0805V27.8405C7.43989 30.9765 7.44789 31.0005 8.07989 31.5445C8.52789 31.9285 8.81589 32.0005 9.83989 32.0005C10.5519 32.0005 10.7439 31.9685 11.0879 31.8085C11.5439 31.5925 11.9679 31.1365 12.0799 30.7205C12.1279 30.5685 12.1599 29.4965 12.1599 28.3365V26.2325L13.0239 26.2965C13.4959 26.3285 15.1679 26.3605 16.7439 26.3525H19.5999V28.4725C19.5999 30.8885 19.6319 31.0165 20.2319 31.5285C20.6719 31.9125 21.0159 32.0005 22.0079 32.0005C22.7119 32.0005 22.9039 31.9685 23.2399 31.8085C23.6479 31.6245 24.0159 31.2645 24.1839 30.8885C24.2479 30.7525 24.2959 29.7605 24.3199 27.9765L24.3599 25.2805L25.2399 24.8965C26.6079 24.3045 27.6399 23.6485 28.6239 22.7685C29.2159 22.2245 30.1599 20.9445 30.5919 20.0805C30.9439 19.3765 31.4239 18.0325 31.3439 17.9605C31.3039 17.9205 29.6159 17.9045 24.7199 17.9205L21.5599 17.9285L21.2879 18.3285C20.2879 19.8005 18.2479 20.5685 15.6479 20.4565C13.5999 20.3685 12.1759 19.7285 11.1439 18.4405C10.3039 17.3925 9.96789 16.3845 9.96789 14.8805C9.95989 13.7045 10.0799 13.1685 10.5679 12.1685C10.9759 11.3445 11.7759 10.4965 12.5599 10.0565C13.4799 9.54449 14.3359 9.34448 15.7999 9.30449C17.2639 9.25648 17.9679 9.33648 18.9359 9.68048C19.9679 10.0325 20.7919 10.6565 21.3759 11.4965L21.6079 11.8405H26.4959H31.3759L31.3199 11.5365C31.2399 11.1045 30.7519 9.88049 30.4319 9.30449C29.3119 7.29648 27.3999 5.68848 24.9839 4.71248L24.3199 4.44848V3.01648C24.3199 2.16848 24.2799 1.45648 24.2319 1.27248C24.0959 0.832483 23.7119 0.408484 23.2479 0.192484C22.8959 0.0324821 22.7119 0.000484467 21.9919 0.000484467C21.0079 0.000484467 20.5759 0.120483 20.1759 0.504482C19.6719 0.984484 19.5999 1.23248 19.5999 2.40848V3.46448L19.2639 3.40848C18.0639 3.24048 13.3999 3.28848 12.3999 3.48848L12.1599 3.53648V2.56048C12.1599 2.01648 12.1199 1.44048 12.0719 1.27248C11.9359 0.832483 11.5519 0.408484 11.0879 0.192484C10.7359 0.0244827 10.5599 0.000484467 9.79989 0.00848389C9.26389 0.00848389 8.79989 0.0484829 8.60789 0.120483Z" fill="#32E875"/>
</svg>
